<svg xmlns="http://www.w3.org/2000/svg" xmlns:xlink="http://www.w3.org/1999/xlink" width="2000" zoomAndPan="magnify" viewBox="0 0 1500 1499.999933" height="2000" preserveAspectRatio="xMidYMid meet" version="1.0"><defs><g/><clipPath id="09e7aa4d91"><rect x="0" width="1071" y="0" height="1370"/></clipPath></defs><rect x="-150" width="1800" fill="#ffffff" y="-149.999993" height="1799.99992" fill-opacity="1"/><rect x="-150" width="1800" fill="#000000" y="-149.999993" height="1799.99992" fill-opacity="1"/><g transform="matrix(1, 0, 0, 1, 220, 130)"><g clip-path="url(#09e7aa4d91)"><g fill="#a3e635" fill-opacity="1"><g transform="translate(0.506474, 1123.97735)"><g><path d="M 450.40625 -817.109375 C 461.5625 -782.617188 469.925781 -755.988281 475.5 -737.21875 C 481.082031 -718.457031 485.648438 -702.988281 489.203125 -690.8125 C 492.753906 -678.644531 496.8125 -664.695312 501.375 -648.96875 C 505.9375 -633.25 512.273438 -610.171875 520.390625 -579.734375 L 528 -547.78125 C 529.019531 -552.851562 530.289062 -558.175781 531.8125 -563.75 C 533.332031 -569.332031 534.597656 -574.660156 535.609375 -579.734375 C 543.722656 -610.171875 550.0625 -633.25 554.625 -648.96875 C 559.195312 -664.695312 563.507812 -678.644531 567.5625 -690.8125 C 571.625 -702.988281 576.441406 -718.457031 582.015625 -737.21875 C 587.597656 -755.988281 595.460938 -782.617188 605.609375 -817.109375 C 625.898438 -883.046875 653.289062 -930.976562 687.78125 -960.90625 C 722.269531 -990.832031 764.363281 -1010.101562 814.0625 -1018.71875 C 863.769531 -1027.34375 920.070312 -1031.65625 982.96875 -1031.65625 L 1022.53125 -1031.65625 L 1022.53125 0 L 689.296875 0 L 689.296875 -28.90625 C 689.296875 -82.675781 694.113281 -126.550781 703.75 -160.53125 C 713.382812 -194.507812 726.0625 -223.164062 741.78125 -246.5 C 757.507812 -269.832031 775.265625 -292.148438 795.046875 -313.453125 C 814.828125 -334.753906 834.609375 -359.351562 854.390625 -387.25 C 874.171875 -415.144531 892.9375 -450.648438 910.6875 -493.765625 C 928.445312 -536.878906 943.410156 -591.40625 955.578125 -657.34375 C 967.753906 -723.28125 975.867188 -805.445312 979.921875 -903.84375 C 972.828125 -880.507812 966.742188 -860.472656 961.671875 -843.734375 C 956.597656 -827.003906 951.269531 -810.269531 945.6875 -793.53125 C 940.113281 -776.789062 934.03125 -756.753906 927.4375 -733.421875 C 920.84375 -710.085938 911.960938 -680.160156 900.796875 -643.640625 C 888.628906 -602.054688 871.382812 -568.328125 849.0625 -542.453125 C 826.75 -516.585938 802.40625 -495.539062 776.03125 -479.3125 C 749.65625 -463.082031 723.023438 -448.117188 696.140625 -434.421875 C 669.265625 -420.722656 644.664062 -405.25 622.34375 -388 C 600.03125 -370.757812 582.023438 -348.953125 568.328125 -322.578125 C 554.628906 -296.203125 547.78125 -261.710938 547.78125 -219.109375 L 509.75 -219.109375 C 509.75 -261.710938 502.898438 -296.203125 489.203125 -322.578125 C 475.503906 -348.953125 457.492188 -370.757812 435.171875 -388 C 412.859375 -405.25 388.257812 -420.722656 361.375 -434.421875 C 334.5 -448.117188 307.875 -463.082031 281.5 -479.3125 C 255.125 -495.539062 231.03125 -516.585938 209.21875 -542.453125 C 187.414062 -568.328125 169.921875 -602.054688 156.734375 -643.640625 C 145.566406 -681.179688 136.429688 -711.613281 129.328125 -734.9375 C 122.234375 -758.269531 115.894531 -778.304688 110.3125 -795.046875 C 104.738281 -811.785156 99.414062 -828.773438 94.34375 -846.015625 C 89.269531 -863.265625 82.675781 -884.0625 74.5625 -908.40625 C 78.613281 -809 86.726562 -726.070312 98.90625 -659.625 C 111.082031 -593.175781 126.296875 -538.394531 144.546875 -495.28125 C 162.804688 -452.175781 181.828125 -416.675781 201.609375 -388.78125 C 221.390625 -360.882812 241.171875 -336.03125 260.953125 -314.21875 C 280.734375 -292.40625 298.738281 -269.832031 314.96875 -246.5 C 331.207031 -223.164062 344.144531 -194.507812 353.78125 -160.53125 C 363.414062 -126.550781 368.234375 -82.675781 368.234375 -28.90625 L 368.234375 0 L 35 0 L 35 -1031.65625 C 87.75 -1031.65625 136.1875 -1030.132812 180.3125 -1027.09375 C 224.4375 -1024.050781 264 -1016.1875 299 -1003.5 C 334 -990.820312 364.175781 -969.773438 389.53125 -940.359375 C 414.894531 -910.941406 435.1875 -869.859375 450.40625 -817.109375 Z M 450.40625 -817.109375 "/></g></g></g></g></g></svg>